<svg xmlns="http://www.w3.org/2000/svg" width="171" height="61">
  <g fill="none" fill-rule="evenodd">
    <path fill="none" d="M0 0h171v61H0z"/>
    <path fill="#6163B9" d="M41.816 34.852v-.522c0-4.171.002-8.343-.003-12.515a9.666 9.666 0 0 0-.08-1.284c-.23-1.692-1.187-2.56-2.853-2.576-1.203-.012-2.3.35-3.29 1.065-.266.193-.367.409-.366.748.01 4.817.007 9.634.007 14.45v.63H28.04V12.126c.122-.01.242-.028.362-.029 2.118-.004 4.236.005 6.354-.02.401-.004.493.135.482.513-.023.754-.007 1.51-.007 2.397.192-.19.297-.292.398-.395 1.509-1.526 3.244-2.622 5.384-2.872 2.79-.326 5.205.346 6.855 2.9.1.155.185.32.27.484.085.16.162.325.218.437.365-.34.73-.665 1.078-1.006 1.522-1.489 3.268-2.539 5.379-2.813 3.164-.411 5.939.677 7.253 3.69a8.24 8.24 0 0 1 .709 3.205c.032 2.623.025 5.247.029 7.87.003 2.61 0 5.218 0 7.827v.537h-7.209v-.564c.001-4.144.005-8.287-.001-12.43a9.003 9.003 0 0 0-.094-1.413c-.296-1.817-1.338-2.6-3.25-2.475-1.06.07-1.985.516-2.838 1.15-.261.193-.365.406-.365.746.012 4.817.008 9.634.008 14.45v.536h-7.239zM17.87 23.788l-.118-.023c-.017-1.272-.148-2.523-.65-3.71-.74-1.754-2.19-2.717-4.095-2.712-1.872.005-3.322.972-3.996 2.766-.854 2.27-.87 4.596-.126 6.89.656 2.02 2.147 3.042 4.192 3.04 2.06 0 3.512-1.005 4.164-3.057.326-1.027.427-2.127.63-3.194zm7.255-.57c-.047 3.788-1.007 6.797-3.453 9.198-1.807 1.774-4.005 2.778-6.484 3.157-2.577.394-5.108.197-7.523-.834-3.236-1.382-5.298-3.825-6.18-7.246-.677-2.63-.66-5.272.154-7.871 1.096-3.498 3.404-5.875 6.816-7.112 3.068-1.113 6.197-1.159 9.282-.087 4.052 1.407 6.359 4.362 7.139 8.558.162.872.199 1.768.249 2.238zm86.797-1.567c-.045-.617-.057-1.167-.13-1.709-.343-2.568-2.555-3.826-4.94-2.813-1.283.546-2.033 1.582-2.478 2.856-.186.531-.276 1.096-.414 1.666h7.962zm-7.972 3.753c.074 2.548 1.675 4.342 4.17 4.794 2.501.453 4.868-.052 7.169-1.006.688-.285 1.351-.633 2.074-.974.1.766.203 1.518.297 2.272.13 1.033.232 2.07.39 3.098.05.316-.047.433-.302.55-1.717.794-3.529 1.243-5.393 1.481-2.344.3-4.68.293-7.004-.225-4.88-1.088-8.005-4.523-8.613-9.512-.32-2.622-.085-5.18 1.037-7.594 1.716-3.686 4.686-5.727 8.616-6.417 2.038-.358 4.082-.325 6.08.264 3.423 1.008 5.462 3.313 6.13 6.815.365 1.912.236 3.83-.138 5.736-.074.381-.232.512-.623.517-4.41.057-8.82.132-13.23.2-.212.004-.424.001-.66.001zM77.626 28.45c.165.077.304.14.441.207 2.45 1.187 5.009 1.93 7.734 1.915.622-.003 1.259-.14 1.86-.321.663-.2 1.044-.718 1.086-1.448.041-.717-.278-1.288-.906-1.524a30.514 30.514 0 0 0-3.3-1.031c-1.714-.431-3.394-.921-4.948-1.818-4.043-2.335-3.89-8.098-.657-10.62 1.553-1.212 3.322-1.825 5.223-2.044 3.66-.42 7.18.242 10.6 1.571.548.213.542.229.382.808l-1.17 4.253c-.042.15-.094.298-.154.49-.15-.066-.274-.117-.395-.175-2.1-1.005-4.292-1.679-6.61-1.81-.746-.043-1.515.073-2.25.23-.6.13-.997.574-1.076 1.247-.084.715.221 1.266.828 1.51.964.389 1.96.71 2.964.969 1.6.412 3.198.811 4.685 1.567 1.702.865 2.994 2.104 3.46 4.075.775 3.284-.55 6.25-3.532 7.908-1.5.834-3.125 1.249-4.81 1.357-3.31.213-6.551-.187-9.679-1.371-1.227-.465-1.222-.476-.878-1.772.366-1.377.728-2.756 1.102-4.173zm46.706-4.732c-.094 4.334 3.436 8.484 8.458 8.53 4.672.043 8.498-3.813 8.522-8.484.023-4.482-3.516-8.58-8.523-8.568-5.09.012-8.55 4.24-8.457 8.522zm17.097-8.518c.456.578.862 1.047 1.217 1.552 1.276 1.812 1.988 3.823 2.17 6.042.5 6.04-3.63 11.522-9.507 12.763-6.394 1.35-12.837-2.608-14.278-9.246-1.379-6.357 2.414-12.59 8.623-14.234a12.345 12.345 0 0 1 2.984-.408c3.914-.046 7.83-.014 11.745-.029.4-.001.521.113.507.514-.03.854-.026 1.71 0 2.564.01.375-.126.469-.474.46-.809-.02-1.618-.007-2.427-.005-.153 0-.305.014-.56.027zm24.991 8.532c.103-4.25-3.358-8.512-8.48-8.523-4.896-.01-8.515 3.95-8.526 8.494-.012 4.726 3.807 8.599 8.495 8.574 5.071-.026 8.614-4.225 8.511-8.545zm-8.496 12.088c-6.24.066-12.057-4.93-12.067-12.065-.01-7.188 5.878-12.162 12.161-12.114 6.512.049 12.065 5.414 11.981 12.252-.082 6.685-5.583 11.995-12.075 11.927zm-33.598 12.078c-.118 4.317 3.417 8.569 8.532 8.556 4.883-.012 8.436-3.983 8.482-8.45.046-4.482-3.469-8.624-8.53-8.62-5.095.002-8.582 4.24-8.484 8.514zM132.804 60c-6.444.072-12.144-5.279-12.054-12.25.087-6.758 5.677-11.957 12.13-11.93 6.246.028 12.035 5.022 12.011 12.136-.024 7.132-5.86 12.136-12.087 12.044zm-65.17-25.147V12.607h6.76v22.245h-6.76zm2.522-26.114c-1.065-.019-2.009-.16-2.853-.687-.072-.045-.145-.089-.21-.14-1.419-1.114-1.583-2.61-1.234-4.197.333-1.517 1.436-2.31 2.937-2.592a6.623 6.623 0 0 1 2.827.064c1.682.412 2.68 1.568 2.763 3.265a5.835 5.835 0 0 1-.12 1.571c-.35 1.53-1.617 2.511-3.35 2.663-.283.025-.566.04-.76.053z"/>
  </g>
</svg>
