<svg xmlns="http://www.w3.org/2000/svg" width="147" height="33">
  <g fill="none" fill-rule="evenodd">
    <path fill="none" d="M0 0h147v33H0z"/>
    <path fill="#6163B9" d="M51.738 1c-1.05 3.866-2.094 7.733-3.149 11.597-1.625 5.951-3.258 11.9-4.888 17.85-.05.182-.102.362-.167.594-.318 0-.64.004-.962 0-2.484-.036-4.974.012-7.452-.131-2.87-.167-5.58-.902-7.795-2.86-1.643-1.453-2.742-3.29-3.579-5.26-1.348-3.172-2.597-6.385-3.885-9.582-.457-1.135-.905-2.275-1.359-3.412a1.153 1.153 0 0 0-.35-.508l-5.933 21.734H1c.068-.298.118-.566.19-.829C3.213 22.771 5.242 15.35 7.267 7.93c.442-1.62.457-3.232-.446-4.697-.415-.674-1.077-1.2-1.627-1.793-.134-.145-.266-.293-.4-.439H15.47c.493.043.986.092 1.48.128 2.132.156 4.2.567 6.133 1.501 2.984 1.442 4.829 3.875 6.007 6.84 1.718 4.324 3.38 8.669 5.067 13.005.079.202.172.399.32.742L40.49 1h11.248zm72.164 23.415c-.02 2.045.708 3.337 2.154 3.717 2.19.577 4.302.327 6.074-1.195 2.064-1.774 2.831-4.192 2.865-6.851.018-1.358-.615-2.404-1.936-2.914-2.57-.994-5.862-.024-7.459 2.235a9.404 9.404 0 0 0-1.698 5.008zM146 21.003c-.098.546-.167 1.1-.3 1.636-.748 3.02-2.66 5.094-5.275 6.573-2.425 1.372-5.068 2.05-7.796 2.425-2.836.39-5.685.466-8.536.227-2.647-.223-5.248-.665-7.608-1.997-2.231-1.26-3.565-3.118-3.43-5.804.14-2.784 1.529-4.914 3.607-6.625 2.41-1.984 5.247-3.001 8.245-3.578 4.067-.782 8.162-.847 12.259-.247 1.947.286 3.835.799 5.545 1.83 1.773 1.07 2.995 2.536 3.194 4.711.009.092.062.18.095.27v.579zM86.372 7.632l-1.519 5.813h5.595L89.3 17.78c-1.327 0-2.637-.006-3.947.003-.54.004-1.228-.155-1.576.118-.348.273-.372.988-.511 1.517-.436 1.651-.9 3.297-1.275 4.962-.346 1.536.333 2.383 1.892 2.442.973.037 1.95.007 2.98.007-.017.185-.009.33-.043.462-.286 1.103-.588 2.2-.865 3.305-.082.324-.225.453-.571.451-2.476-.018-4.956.069-7.427-.052-1.213-.06-2.456-.36-3.603-.78-2.108-.775-3.116-2.564-2.705-4.797.35-1.9.892-3.765 1.353-5.644.158-.64.33-1.278.511-1.978h-4.72l1.144-4.34h2.686c.507 0 1.016-.029 1.52.01.419.032.59-.13.69-.532.407-1.62.853-3.23 1.262-4.85.095-.377.257-.51.651-.509 3.04.017 6.081.009 9.122.011.145 0 .29.026.505.046zm23.165 19.185l-1.127 4.235c-2.391 0-4.77.024-7.149-.008-1.448-.02-2.877-.226-4.235-.784-2.16-.886-3.212-2.626-2.763-4.937.42-2.157 1.035-4.275 1.565-6.41.086-.347.177-.693.284-1.112H91.39l1.15-4.35c1.253 0 2.506.011 3.759-.002 1.218-.014.913.193 1.241-.967.414-1.46.783-2.932 1.166-4.4.075-.289.143-.509.533-.507 3.115.017 6.229.01 9.343.013.092 0 .183.02.385.046l-1.517 5.797h5.595c-.379 1.429-.722 2.768-1.108 4.094-.036.123-.342.234-.524.236-1.519.019-3.039.021-4.558.004-.39-.005-.599.077-.706.511-.496 2.007-1.071 3.994-1.544 6.006-.382 1.629.306 2.48 1.962 2.53.954.03 1.91.005 2.97.005zM64.372 13.28c-.328 1.28-.647 2.537-.972 3.792-.561 2.166-1.13 4.33-1.687 6.498-.085.332-.14.676-.17 1.018-.118 1.31.482 2.04 1.74 2.121.44.028.882.023 1.324.027.437.004.875 0 1.36 0l-1.093 4.229c-3.34.02-6.652.353-9.935-.358-.054-.012-.108-.021-.162-.035-3.18-.848-4.431-2.884-3.647-6.297.826-3.599 1.817-7.156 2.755-10.727.037-.141.264-.326.404-.327 3.294-.015 6.589-.008 9.883-.003.035 0 .07.02.2.062zm-9.703-2.948c.412-1.486.81-2.94 1.228-4.388.03-.103.212-.236.324-.237 3.227-.013 6.454-.01 9.747-.01-.092.34-.168.634-.248.925-.316 1.141-.623 2.285-.963 3.419-.043.144-.258.341-.394.342-3.177.017-6.353.01-9.53.005-.033 0-.066-.021-.164-.056z"/>
  </g>
</svg>
