<svg xmlns="http://www.w3.org/2000/svg" width="75" height="109">
  <g fill="none" fill-rule="evenodd">
    <path fill="none" d="M0 0h75v109H0z"/>
    <path fill="#6163B9" fill-rule="nonzero" d="M14.074 26.228c-2.494 0-4.733-.519-6.72-1.556-1.985-1.037-3.54-2.477-4.666-4.319C1.563 18.51 1 16.431 1 14.114c0-2.317.563-4.397 1.688-6.24 1.125-1.842 2.681-3.281 4.667-4.318C9.34 2.519 11.58 2 14.074 2c2.493 0 4.733.519 6.719 1.556 1.986 1.037 3.541 2.476 4.667 4.319 1.125 1.842 1.688 3.922 1.688 6.239 0 2.317-.563 4.396-1.688 6.239-1.126 1.842-2.681 3.282-4.667 4.32-1.986 1.036-4.226 1.555-6.72 1.555zm0-6.322c.97 0 1.848-.237 2.631-.711.783-.475 1.407-1.148 1.87-2.02.464-.871.695-1.892.695-3.061 0-1.17-.231-2.19-.695-3.062-.463-.871-1.087-1.544-1.87-2.019-.783-.474-1.66-.711-2.631-.711-.971 0-1.848.237-2.632.711-.783.475-1.406 1.148-1.87 2.02-.463.871-.695 1.891-.695 3.061s.232 2.19.695 3.062c.464.871 1.087 1.544 1.87 2.019.784.474 1.66.711 2.632.711zm28.51-12.643c2.228 0 4.02.673 5.378 2.019 1.357 1.346 2.035 3.376 2.035 6.09v10.326h-7.48v-9.035c0-2.075-.74-3.112-2.218-3.112-.838 0-1.517.293-2.035.877-.519.585-.778 1.506-.778 2.764v8.506h-7.48V7.594h7.116V9.38a6.903 6.903 0 0 1 2.45-1.589c.926-.353 1.93-.53 3.011-.53zm30.494 9.366c0 .11-.033.695-.1 1.755H60.403a3.047 3.047 0 0 0 1.324 1.572c.617.364 1.39.546 2.316.546.795 0 1.462-.1 2.003-.298.54-.199 1.13-.54 1.77-1.026l3.906 3.939c-1.765 1.941-4.402 2.912-7.91 2.912-2.185 0-4.104-.402-5.76-1.208-1.654-.805-2.934-1.925-3.839-3.36-.904-1.434-1.357-3.044-1.357-4.832 0-1.809.447-3.425 1.34-4.848.894-1.424 2.119-2.532 3.675-3.327 1.555-.794 3.304-1.191 5.246-1.191 1.831 0 3.503.364 5.014 1.092a8.607 8.607 0 0 1 3.608 3.21c.893 1.413 1.34 3.1 1.34 5.064zm-9.896-4.27c-.772 0-1.412.21-1.92.63-.507.419-.838 1.015-.993 1.787h5.825c-.154-.75-.485-1.34-.992-1.77-.508-.431-1.148-.646-1.92-.646zM1.927 43.417h11.419c2.581 0 4.86.469 6.834 1.406 1.975.938 3.509 2.279 4.601 4.022 1.092 1.743 1.638 3.795 1.638 6.156 0 2.361-.546 4.413-1.638 6.156-1.092 1.743-2.626 3.084-4.6 4.022-1.975.937-4.254 1.406-6.835 1.406H1.926V43.416zm11.088 17.078c1.677 0 3.017-.48 4.021-1.44s1.506-2.31 1.506-4.054c0-1.743-.502-3.095-1.506-4.055-1.004-.96-2.344-1.44-4.021-1.44H9.738v10.99h3.277zM37.387 48.15c3.177 0 5.604.711 7.281 2.135 1.677 1.423 2.516 3.613 2.516 6.57v9.73h-6.95v-2.383c-.861 1.81-2.572 2.714-5.131 2.714-1.434 0-2.654-.248-3.657-.744-1.004-.497-1.766-1.17-2.284-2.02-.519-.849-.778-1.803-.778-2.862 0-1.788.684-3.145 2.052-4.071 1.368-.927 3.442-1.39 6.222-1.39h3.012c-.242-1.413-1.379-2.119-3.409-2.119a8.56 8.56 0 0 0-2.482.38c-.839.255-1.556.602-2.151 1.043l-2.384-4.931c1.038-.64 2.29-1.142 3.757-1.506a18.154 18.154 0 0 1 4.386-.546zm-.033 14.265c.53 0 1.004-.143 1.423-.43.419-.287.728-.717.927-1.291v-1.258H37.85c-1.523 0-2.284.508-2.284 1.523 0 .419.16.766.48 1.042.32.276.756.414 1.308.414zM70.497 48.48l-7.448 18.468c-.948 2.361-2.129 4.016-3.541 4.965-1.412.949-3.144 1.423-5.196 1.423-1.016 0-2.036-.149-3.062-.446-1.026-.298-1.837-.69-2.433-1.175l2.483-5.13c.375.286.8.518 1.274.694a3.93 3.93 0 0 0 1.373.265c.817 0 1.435-.242 1.854-.728L48.188 48.48h7.68l3.74 9.697 3.806-9.697h7.083zM13.908 108c-2.449 0-4.655-.513-6.62-1.54-1.963-1.025-3.502-2.46-4.617-4.302C1.557 100.316 1 98.225 1 95.886c0-2.339.557-4.43 1.671-6.272 1.115-1.843 2.654-3.277 4.618-4.303 1.964-1.026 4.17-1.539 6.62-1.539 2.25 0 4.258.397 6.023 1.192 1.765.794 3.222 1.941 4.37 3.442l-4.932 4.402c-1.435-1.81-3.123-2.714-5.065-2.714-1.632 0-2.945.524-3.938 1.572-.993 1.048-1.49 2.455-1.49 4.22 0 1.765.497 3.172 1.49 4.22.993 1.048 2.306 1.572 3.938 1.572 1.942 0 3.63-.904 5.065-2.714l4.931 4.402c-1.147 1.5-2.604 2.648-4.369 3.442-1.765.795-3.773 1.192-6.024 1.192zm20.765-18.965c3.177 0 5.604.711 7.281 2.135 1.677 1.423 2.516 3.613 2.516 6.57v9.73h-6.951v-2.383c-.86 1.81-2.57 2.714-5.13 2.714-1.434 0-2.654-.248-3.658-.744-1.004-.497-1.765-1.17-2.283-2.02-.519-.849-.778-1.803-.778-2.862 0-1.788.684-3.145 2.052-4.071 1.368-.927 3.442-1.39 6.222-1.39h3.012c-.242-1.413-1.379-2.119-3.409-2.119a8.56 8.56 0 0 0-2.482.38c-.839.255-1.556.602-2.152 1.043l-2.383-4.931c1.037-.64 2.29-1.142 3.757-1.506a18.154 18.154 0 0 1 4.386-.546zm-.034 14.265c.53 0 1.004-.143 1.424-.43.419-.287.728-.717.926-1.291v-1.258h-1.853c-1.523 0-2.284.508-2.284 1.523 0 .419.16.767.48 1.042.32.276.756.414 1.307.414zm26.656 3.542c-1.125.64-2.659.96-4.6.96-2.538 0-4.49-.613-5.859-1.838-1.368-1.224-2.052-3.061-2.052-5.51V95.82h-2.482v-5.461h2.482v-5.064h7.48v5.064h3.707v5.46h-3.707v4.568c0 .552.144.982.43 1.291.287.31.663.464 1.126.464.64 0 1.202-.166 1.688-.497l1.787 5.197z" opacity=".87"/>
  </g>
</svg>
