<svg xmlns="http://www.w3.org/2000/svg" width="132" height="50">
  <g fill="none" fill-rule="evenodd">
    <path fill="none" d="M0 0h132v50H0z"/>
    <path fill="#6163B9" d="M118.286 24.9c-.18-2.488-1.364-4.255-3.454-5.33-2.909-1.498-5.81-1.376-8.52.515-1.629 1.137-2.54 2.74-2.656 4.815h14.63zm10.751 7.616c-.19-.01-.38-.029-.572-.029l-24.063-.001h-.734c.035 1.457.55 2.645 1.417 3.685 2.958 3.545 8.841 3.55 11.794-.004.316-.38.579-.427 1.023-.308 2.96.795 5.93 1.56 8.895 2.338.159.042.312.103.644.215-.892 1.193-1.641 2.397-2.583 3.423-4.317 4.699-9.667 6.762-16.029 6.077-4.461-.48-8.35-2.177-11.388-5.571-2.454-2.741-3.75-6.021-4.3-9.62-.65-4.244-.39-8.413 1.376-12.369 2.663-5.967 7.188-9.771 13.675-10.719 9.194-1.344 16.8 3.156 19.665 12.633.62 2.05.969 4.152 1.06 6.296.012.293.079.584.12.876v3.078zM91.13 11.19v.64c0 6.464.005 12.927-.003 19.391-.002 2.452-.3 4.866-1.166 7.182-1.675 4.475-4.842 7.447-9.519 8.757-4.272 1.197-8.594 1.198-12.827-.152-5.329-1.7-8.429-5.445-9.623-10.72a22.028 22.028 0 0 1-.52-4.644c-.057-6.63-.026-13.26-.026-19.89v-.547c.098-.044.155-.09.211-.09 1.894-.004 3.794-.091 5.682.017 3.162.183 5.157 2.35 5.163 5.477.01 5.338.01 10.675 0 16.013-.005 2.306.961 4.08 3.01 5.215 3.696 2.052 8.489-.545 8.548-4.702.085-5.983.03-11.968.034-17.952.001-1.188.005-2.377-.002-3.565-.002-.3.016-.529.425-.527 3.449.01 6.898.009 10.347.014.06 0 .119.036.266.083zM6.242 20.5c-1.412 0-2.731.007-4.05-.002-1.377-.009-1.18.152-1.185-1.209-.01-2.72-.003-5.44-.003-8.16v-.837h5.178c.023-.335.057-.604.058-.872.004-2.548.015-5.096-.007-7.643-.006-.56.109-.785.733-.778 3.206.034 6.412.015 9.618.017.209 0 .418.017.694.03v9.218h12.356c0 1.158.017 2.23-.006 3.302-.02.925.03 1.872-.152 2.768-.49 2.424-2.546 4.082-4.996 4.12-2.116.034-4.231.033-6.347.046-.253.002-.506 0-.845 0v.753c0 3.627-.003 7.254 0 10.881.005 3.569 2.46 6.077 5.986 6.107 1.86.015 3.72.003 5.579.003h.735v9.719c-.102.02-.202.061-.301.06-2.84-.04-5.706.14-8.517-.174-6.132-.686-10.919-3.533-13.463-9.495-.824-1.932-1.071-3.982-1.067-6.072.008-3.606.002-7.21.002-10.816V20.5zm36.665 27.54H32.169v-.7c0-6.937-.005-13.872.001-20.808.008-7.571 4.908-13.672 12.197-15.167a13.05 13.05 0 0 1 2.415-.255c2.579-.038 5.159-.026 7.739-.03.1 0 .2.035.349.063.01.217.026.423.027.629.001 2.876-.014 5.751.013 8.627.006.571-.177.716-.712.708-1.83-.025-3.663-.05-5.492.007-3.531.112-5.79 2.5-5.796 6.092-.01 6.66-.003 13.321-.003 19.982v.852z"/>
  </g>
</svg>
