<svg xmlns="http://www.w3.org/2000/svg" width="182" height="67">
  <g fill="none" fill-rule="evenodd">
    <path fill="none" d="M0 0h182v67H0z"/>
    <path fill="#6163B9" fill-rule="nonzero" d="M99.71 62.296c-.01-.704.144-1.4.45-2.031 3.841-8.82 7.68-17.641 11.515-26.462.826-1.905 2.027-3.36 4.2-3.642 2.45-.32 4.455.727 5.483 3.078a3669.708 3669.708 0 0 1 11.8 27.163c.957 2.217.237 4.256-1.647 5.178-1.884.922-3.911.266-5.063-1.86a34.775 34.775 0 0 1-1.843-4.16c-.42-1.09-1.047-1.588-2.252-1.573a455.82 455.82 0 0 1-11.635 0c-1.178 0-1.835.503-2.252 1.577a35.189 35.189 0 0 1-2 4.507c-.897 1.57-2.376 2.286-4.162 1.756-1.7-.487-2.53-1.752-2.594-3.531zm16.83-22.222c-1.438 3.493-2.628 6.411-3.844 9.326-.375.895-.112 1.33.848 1.326h6.005c.995 0 1.168-.538.822-1.376-1.2-2.903-2.405-5.825-3.832-9.276zm51.626 25.914a20.571 20.571 0 0 1-12.382-3.8c-1.882-1.322-2.427-3.575-1.29-5.273 1.184-1.782 3.367-2.261 5.3-.954 2.725 1.843 5.588 3.112 8.933 3.04a7.002 7.002 0 0 0 2.39-.452c1.128-.441 1.918-1.201 2.027-2.485.11-1.285-.628-2.147-1.708-2.694-1.69-.855-3.518-1.33-5.331-1.828a41.126 41.126 0 0 1-5.185-1.71c-4.053-1.72-6.02-4.768-5.896-9.206.124-4.438 2.396-7.839 6.441-9.366 5.772-2.177 11.235-1.14 16.39 1.957 1.882 1.14 2.382 3.176 1.46 4.94a3.702 3.702 0 0 1-2.214 1.798 3.663 3.663 0 0 1-2.824-.32c-2.48-1.274-4.933-2.478-7.841-2.231-1.678.14-3.214.479-3.533 2.428-.32 1.949 1.046 2.834 2.633 3.347 2.634.851 5.31 1.52 7.902 2.481 6.02 2.242 8.24 5.772 7.386 11.513-.753 4.966-5.106 8.542-10.776 8.815-.636.027-1.257 0-1.882 0zm-21.054-17.374c0 4.296.033 8.614 0 12.891-.025 2.442-1.187 3.982-3.15 4.409-2.403.52-4.47-1.36-4.533-4.274-.076-3.487-.025-6.974-.025-10.46 0-5.244-.026-10.465 0-15.693.018-2.577 1.285-4.169 3.328-4.382 2.585-.274 4.322 1.344 4.37 4.243.054 4.42.01 8.843.01 13.266zM1.294 7.822c1.226.71 2.442 1.43 3.676 2.13 14.89 8.387 30.743 12.662 47.823 11.43 10.457-.768 20.474-3.56 30.291-7.21 9.009-3.354 17.758-7.398 26.894-10.398 5.524-1.815 11.127-3.07 16.986-2.713.933.057 1.881 0 2.713.533.154.56-.267.68-.587.817-10.085 4.313-18.548 11.097-26.83 18.18-9.313 7.962-19.605 13.967-31.706 16.304-12.042 2.302-23.556.384-34.717-4.432C25.211 27.897 15.92 21.202 7.171 13.662 5.098 11.866 3.055 10.04 1 8.228l.294-.406zm16.29 15.491c1.191.902 2.36 1.8 3.544 2.685 8.058 5.93 16.677 10.647 26.419 12.972 12.136 2.895 23.716 1.085 34.91-4.173 1.453-.68 2.872-1.43 4.672-2.332-.549 1.641-1.449 2.527-2.24 3.452-5.975 7.095-12.842 12.814-22.032 14.85-10.03 2.198-18.753-1.15-26.886-6.869-7.42-5.2-12.98-12.231-18.252-19.56a.782.782 0 0 1-.135-1.025z"/>
  </g>
</svg>
