<svg xmlns="http://www.w3.org/2000/svg" width="168" height="38">
  <g fill="none" fill-rule="evenodd">
    <path fill="none" d="M0 0h168v38H0z"/>
    <path fill="#6163B9" d="M121.383 5.376c-3.266 1.336-4.642 3.674-3.954 7.014.688 3.173 2.75 4.676 6.188 4.842 1.546 0 3.953-.835 4.124 1.67.171 2.84-2.578 1.837-4.124 1.837-3.61.167-5.844 1.838-6.36 5.177-.514 3.507 1.203 6.012 4.813 7.014 4.985 1.17 9.454.333 13.407-2.672 4.126-3.005 7.392-6.68 11.003-10.354.86-.835.513-1.336-.171-2.004-3.266-3.34-6.36-6.847-10.141-9.686a16.779 16.779 0 0 0-10.486-3.507 14.28 14.28 0 0 0-4.3.669zm4.81-4.175c6.704-.332 11.687 3.006 15.986 7.181 2.235 2.171 4.47 4.342 6.705 6.68 1.031 1.002 1.375 1.002 2.406 0 3.782-3.84 7.563-7.68 11.344-11.523 1.03-1.002 2.063-2.505 3.61-1.002 1.547 1.503.171 2.505-.86 3.507-3.782 3.674-7.39 7.515-11.174 11.188-1.375 1.17-1.375 2.004 0 3.173 3.954 3.84 7.734 7.682 11.516 11.523 1.032 1.002 1.89 2.004.687 3.173-1.203 1.336-2.406.333-3.438-.668-3.782-3.841-7.564-7.348-11.174-11.188-1.547-1.67-2.235-1.17-3.438.166-3.437 3.507-6.704 7.181-10.832 10.02-5.329 3.675-11.003 4.51-17.188 2.505-5.158-1.67-7.736-6.178-6.36-11.353.515-2.172 2.235-4.009 2.577-5.845.342-1.336-2.062-3.507-2.578-5.678-1.375-5.511 1.891-10.523 7.907-11.857a36.838 36.838 0 0 1 4.305-.002zM14.124 20.44L1 1h7.74l8.58 13.675L25.903 1h7.403L20.349 20.442v14.663h-6.225V20.442zm27.651-1.522c.02 1.745.303 3.479.842 5.142a11.95 11.95 0 0 0 2.357 3.981 11.625 11.625 0 0 0 3.705 2.655 12.473 12.473 0 0 0 9.764 0 12.326 12.326 0 0 0 3.873-2.655 11.91 11.91 0 0 0 2.357-3.98c.552-1.66.836-3.396.842-5.143a15.206 15.206 0 0 0-.842-4.81 11.937 11.937 0 0 0-2.357-3.982 10.685 10.685 0 0 0-3.873-2.654 12.473 12.473 0 0 0-9.764 0 10.032 10.032 0 0 0-3.705 2.654 11.929 11.929 0 0 0-2.357 3.981 11.617 11.617 0 0 0-.842 4.81zm-6.567.33a20.402 20.402 0 0 1 1.348-7.465 15.384 15.384 0 0 1 3.872-5.806 15.308 15.308 0 0 1 5.892-3.65 22.681 22.681 0 0 1 14.817-.165 16.688 16.688 0 0 1 5.893 3.65 17.654 17.654 0 0 1 3.873 5.806 17.907 17.907 0 0 1 1.347 7.465 20.142 20.142 0 0 1-1.347 7.299 14.79 14.79 0 0 1-3.873 5.64 15.323 15.323 0 0 1-5.893 3.65 21.343 21.343 0 0 1-14.817 0 16.675 16.675 0 0 1-5.893-3.65 16.933 16.933 0 0 1-3.872-5.64 17.99 17.99 0 0 1-1.347-7.134zm71.257 3.31a14.804 14.804 0 0 1-1.03 5.595 11.145 11.145 0 0 1-3.09 4.278 13.168 13.168 0 0 1-4.465 2.633 16.749 16.749 0 0 1-11.332 0 13.151 13.151 0 0 1-4.464-2.633c-1.374-1.152-2.233-2.632-3.09-4.278a14.235 14.235 0 0 1-1.03-5.596V1h6.353v21.395c.039.884.153 1.765.341 2.632a5.854 5.854 0 0 0 1.373 2.469 6.902 6.902 0 0 0 2.404 1.975 9.079 9.079 0 0 0 7.555 0 5.646 5.646 0 0 0 2.403-1.975 8.874 8.874 0 0 0 1.374-2.469 7.377 7.377 0 0 0 .342-2.632V1h6.351v21.558h.005z"/>
  </g>
</svg>
