<svg xmlns="http://www.w3.org/2000/svg" width="86" height="134">
  <g fill="none" fill-rule="evenodd">
    <path fill="none" d="M0 0h86v134H0z"/>
    <path fill="#6163B9" d="M53.86 60.434V42.34c0-5.377-.333-9.415-1.97-11.636-2.474-3.357-9.535-3.357-11.857-3.357H30.028v38.865c-3.045-.171-6.255-.8-9.656-2.07v-46.4h19.66c9.744 0 15.983 2.314 19.645 7.283 3.545 4.807 3.842 11.191 3.842 17.315v16.033c-2.952-.223-6.146.735-9.658 2.06zm9.66-1.271v30.303c0 6.067-.298 12.393-3.843 17.157-3.419 4.588-9.08 6.89-17.734 7.177-8.65-.287-14.31-2.59-17.729-7.177-3.545-4.764-3.842-11.09-3.842-17.157V67.748c1.275 1.713 2.496 3.115 3.725 4.458 2.074 2.009 4.06 3.388 5.93 4.288v12.972c0 5.327.337 9.329 1.975 11.53 1.972 2.648 6.865 3.187 9.941 3.292 3.078-.105 7.972-.644 9.947-3.293 1.637-2.2 1.97-6.202 1.97-11.529V65.608c3.28-2.71 6.182-4.865 9.66-6.445zM20.371 67.25v-1.038c2.75 1.847 6.02 3.644 9.686 4.744v1.424c-3.048-.961-6.27-2.61-9.686-5.13zm-7.925-49.507c.069-4.353 3.585-7.882 7.925-7.931v2.35c-3.051.048-5.517 2.522-5.584 5.58h-2.34zm-4.403 0c.064-6.787 5.56-12.287 12.328-12.338V7.8c-5.45.053-9.876 4.481-9.94 9.944H8.043zm-3.522 0C4.594 8.534 12.061 1.05 21.252 1v2.411c-7.868.048-14.255 6.45-14.327 14.333H4.522zM1 123.306h2.542l3.802 6.02v-6.02h2.462V133h-2.56l-3.783-5.998V133H1v-9.694zm19.517 5.959c0 .626-.1 1.172-.306 1.64a3.088 3.088 0 0 1-.87 1.166c-.379.31-.832.54-1.364.697A6.425 6.425 0 0 1 16.2 133a7.26 7.26 0 0 1-1.846-.219 3.846 3.846 0 0 1-1.417-.675 3.013 3.013 0 0 1-.905-1.164c-.213-.47-.32-1.03-.32-1.677v-5.959h2.538v5.763c0 .329.033.617.104.869.067.25.18.463.334.629.156.166.357.295.605.383.25.088.549.131.907.131.33 0 .609-.043.836-.13.225-.089.408-.218.549-.384.14-.166.243-.38.305-.63.06-.25.093-.54.093-.868v-5.763h2.535v5.959zm6.775-5.959h3.312l2.03 6.081 1.915-6.08h3.31V133h-2.368v-6.395L33.346 133h-1.521l-2.145-6.294V133h-2.388v-9.694zm15.07 4.867c0 .24.02.478.059.715.037.235.1.461.183.674.085.215.192.413.319.596.127.184.282.343.46.48.178.134.383.24.615.317.23.076.489.116.774.116.294 0 .555-.04.794-.116a2.09 2.09 0 0 0 1.09-.797 2.65 2.65 0 0 0 .32-.596c.085-.213.146-.44.186-.674a4.306 4.306 0 0 0 0-1.43 3.46 3.46 0 0 0-.185-.678 2.725 2.725 0 0 0-.32-.604 2.052 2.052 0 0 0-.467-.485 2.116 2.116 0 0 0-.624-.32 2.522 2.522 0 0 0-.794-.118c-.285 0-.543.04-.774.118a2.043 2.043 0 0 0-1.075.805 2.996 2.996 0 0 0-.32.604 3.298 3.298 0 0 0-.182.678 4.431 4.431 0 0 0-.058.715zm-2.41 0c0-.433.042-.857.128-1.268.086-.412.217-.798.39-1.158a4.4 4.4 0 0 1 .66-.99c.263-.3.574-.558.932-.77a4.62 4.62 0 0 1 1.21-.502c.452-.12.952-.179 1.5-.179s1.05.058 1.505.18c.454.12.863.287 1.221.504.36.218.675.477.942.775.267.3.49.632.667.994.179.362.31.745.398 1.154a6.07 6.07 0 0 1 0 2.533 4.893 4.893 0 0 1-.395 1.15 4.277 4.277 0 0 1-.663.979c-.267.297-.58.549-.94.76a4.85 4.85 0 0 1-1.227.491 6.05 6.05 0 0 1-1.508.174 5.95 5.95 0 0 1-1.5-.176 4.694 4.694 0 0 1-1.21-.494 3.84 3.84 0 0 1-.933-.761 4.343 4.343 0 0 1-.66-.981 4.979 4.979 0 0 1-.389-1.15 6.105 6.105 0 0 1-.128-1.265zm16.417 2.942c.482 0 .848-.1 1.097-.292.248-.194.373-.48.373-.863a.854.854 0 0 0-.152-.523 1.076 1.076 0 0 0-.398-.323 1.867 1.867 0 0 0-.558-.163 4.59 4.59 0 0 0-.629-.044H54.24v2.208h2.13zm-.66-3.954c.307 0 .567-.02.784-.06a1.54 1.54 0 0 0 .532-.187.766.766 0 0 0 .303-.314.97.97 0 0 0 .096-.451c0-.235-.044-.415-.135-.543a.81.81 0 0 0-.37-.287 1.818 1.818 0 0 0-.55-.11 11.45 11.45 0 0 0-.66-.016h-1.47v1.968h1.47zm.041-3.855c.221 0 .464.004.73.007.263.005.525.02.787.045.26.023.508.063.746.117.237.052.441.13.613.228.181.105.357.228.52.37a2.53 2.53 0 0 1 .748 1.084c.077.218.113.457.113.716a2.206 2.206 0 0 1-.653 1.594c-.132.133-.28.25-.44.35.225.102.431.23.62.384.189.155.35.328.484.52.135.192.24.4.314.623.073.223.11.456.11.698 0 .246-.034.49-.104.73a2.884 2.884 0 0 1-.797 1.302 3.013 3.013 0 0 1-.681.486 3.643 3.643 0 0 1-.86.324 4.345 4.345 0 0 1-1.029.116h-5.334v-9.694h4.113zM62.49 133v-9.694h2.36V133h-2.36zm7.283-9.694v7.667h4.49V133h-7.045v-9.694h2.555zm14.208 0v1.95h-4.66v1.822h4.318v1.912h-4.317v2.084H84V133h-7.044v-9.694h7.025z"/>
  </g>
</svg>
