<svg xmlns="http://www.w3.org/2000/svg" width="154" height="128">
  <g fill="none" fill-rule="evenodd">
    <path fill="none" d="M0 0h154v128H0z"/>
    <path fill="#6163B9" d="M153 123.178v.659h-.814c-.545 0-.627-.277-.635-.75v-.734H153v.825zm-11.55-8.106c-.579.003-1.158.014-1.735-.006-.476-.017-.646.137-.639.569.022 1.318.008 2.636.008 3.954 0 1.249-.004 2.497.002 3.746.002.386.025.72-.605.712-.601-.008-.57-.333-.57-.693.002-2.48.002-4.96.001-7.44 0-.841 0-.84-.96-.842-.616 0-1.233-.009-1.849.002-.359.007-.538-.114-.531-.453.006-.317.185-.418.512-.418 2.272.005 4.545.006 6.818 0 .036 0 .07.001.102.003.057-.003.119-.004.187-.002 1.13.037 2.26.01 3.39.011 2.452 0 3.982 1.119 4.507 3.307a6.798 6.798 0 0 1-.099 3.602c-.555 1.843-2.102 2.919-4.208 2.922h-3.506c-.815-.001-.817-.003-.818-.764v-4.165c0-1.348.018-2.697-.007-4.045zm-128.645.005c-.76.004-1.518.017-2.276-.01-.518-.017-.68.178-.676.674.016 2.862.01 5.724.003 8.586-.001.253.096.577-.304.672-.467.11-.686-.057-.69-.568-.007-1.467-.002-2.935-.003-4.403 0-1.449-.012-2.898.007-4.347.005-.452-.158-.622-.62-.611-.912.022-1.827.004-2.74.006-.303 0-.566-.03-.56-.43.007-.387.26-.443.566-.443h7.718c.04 0 .08.001.118.004a1.73 1.73 0 0 1 .149-.004c2.111.024 4.224.008 6.337.013.25 0 .553-.06.614.312.072.44-.138.587-.569.583a475.9 475.9 0 0 0-4.99-.002c-1.285.004-1.141-.127-1.15 1.112-.004.734-.002 1.468 0 2.202.002.74.006.747.74.747 1.664.003 3.328-.002 4.992.005.228.001.505-.072.631.224.161.378-.046.651-.526.653-1.682.009-3.364.004-5.046.005-.788 0-.79.003-.79.754-.003.9.021 1.8-.01 2.698-.016.491.177.633.655.628 1.794-.02 3.589-.008 5.384-.007.15 0 .299.004.448.006.302.004.435.161.441.45.005.292-.119.444-.43.444-2.318-.003-4.636-.005-6.954.001-.437.002-.464-.267-.463-.586.003-1.616.001-3.231.001-4.847 0-1.507.014-3.015-.007-4.521zm106.317-90.42c-.13-.22-.29-.534-.486-.825-2.264-3.38-4.862-6.467-7.878-9.23-.957-.879-1.753-1.05-2.946-.663a269.362 269.362 0 0 1-10.053 3.045c-5.984 1.681-11.95 3.441-18.126 4.346-.326.047-.819-.048-.93.347-.089.314.337.499.538.737.343.408.67.835 1.05 1.208 6.222 6.12 12.24 12.445 18.667 18.36 1.553 1.428 1.567 1.445 3.147.121l.159-.142c5.7-5.13 10.868-10.787 16.296-16.186.28-.277.532-.58.562-1.118zM45.953 13.625c-.573-.064-.867.125-1.135.376-3.263 3.048-6.304 6.282-8.695 10.075-.363.577-.38.98.124 1.485 1.233 1.231 2.398 2.53 3.625 3.769 4.435 4.471 8.72 9.092 13.49 13.23.783.677 1.32.602 2.007-.042 1.92-1.803 3.925-3.52 5.791-5.375 4.9-4.868 9.745-9.79 14.612-14.693.1-.102.201-.201.297-.307.348-.385.269-.625-.25-.71-.705-.115-1.413-.216-2.115-.346-7.884-1.468-15.542-3.796-23.214-6.069-1.574-.466-3.14-.963-4.537-1.393zm31.39 7.21c1.223.002 2.427-.17 3.619-.394 8.866-1.672 17.462-4.351 26.078-6.948.485-.147 1.254-.11 1.337-.675.066-.448-.622-.714-1.01-1.002-10.35-7.747-22-11.142-34.9-9.902-9.43.908-17.935 4.315-25.402 10.164-.268.21-.707.36-.613.78.079.352.504.358.8.448 6.9 2.106 13.803 4.205 20.824 5.885 3.052.73 6.107 1.494 9.266 1.645zm-42.036 4.87c-.368.078-.498.341-.632.581-.502.901-1.037 1.786-1.48 2.715-4.757 10.003-6.352 20.454-3.954 31.3 3.6 16.285 13.246 27.834 28.42 34.885 1.117.52 1.305.362 1.405-.923.223-2.898.463-5.795.698-8.691.412-5.051.798-10.105 1.243-15.153.368-4.169.856-8.32 1.622-12.441.451-2.434 1.483-4.427 3.598-5.783.619-.397.64-.773.33-1.396-1.975-3.975-3.215-8.188-4.03-12.533-.064-.337.055-.829-.32-.954-.438-.145-.642.36-.913.613-1.82 1.702-3.606 3.441-5.444 5.123-1.238 1.133-1.636 1.13-2.842.127a37.717 37.717 0 0 1-2.39-2.133c-4.894-4.825-9.83-9.61-14.541-14.615-.24-.255-.513-.482-.77-.722zm91.214 24.838c.069-3.22-.293-6.383-.913-9.527-1-5.06-2.81-9.82-5.305-14.331-.571-1.032-.72-1.056-1.523-.23-.916.944-1.793 1.928-2.714 2.867-1.696 1.73-3.463 3.393-5.107 5.167-2.932 3.165-6.13 6.048-9.338 8.922-.674.602-1.338.645-2.092.011-2.158-1.813-4.182-3.762-6.183-5.739-.243-.239-.443-.693-.822-.585-.387.11-.303.59-.363.926-.78 4.428-2.047 8.707-4.052 12.746-.344.692-.243 1.058.38 1.475 1.794 1.198 2.911 2.82 3.368 4.975.737 3.48 1.226 6.994 1.54 10.522.79 8.862 1.477 17.733 2.2 26.6.1 1.242.275 1.357 1.447.848 6.442-2.805 12.019-6.792 16.732-11.984 8.434-9.29 12.58-20.212 12.745-32.663zM80.549 1c1.515.203 3.035.389 4.548.613 8.732 1.292 16.483 4.8 23.402 10.195 4.084 3.184 7.62 6.884 10.429 11.213 4.463 6.879 7.277 14.347 8.021 22.556.9 9.916-.706 19.37-5.566 28.095-8.093 14.536-20.432 23.292-37.05 25.74-10.25 1.51-20.161.022-29.376-4.748-14.66-7.587-23.551-19.554-26.693-35.682-.344-1.768-.493-3.572-.732-5.36v-6.605c.07-.272.18-.541.2-.818a43.077 43.077 0 0 1 1.304-7.865c2.713-10.337 8.12-19.002 16.413-25.855C52.218 6.885 59.927 3.284 68.61 1.778c1.754-.305 3.523-.521 5.285-.778h6.654zM41.195 115.961c-1.123 1.785-2.248 3.568-3.367 5.355-.397.634-.547.637-.953-.006-1.142-1.817-2.287-3.633-3.465-5.502-.126.231-.083.428-.083.61-.003 2.65 0 5.3-.007 7.948 0 .234.093.535-.256.632-.402.111-.604-.054-.606-.545-.007-1.754-.004-3.508-.004-5.262 0-1.407-.005-2.814.006-4.22.001-.252-.118-.604.25-.689.368-.086.714-.064.964.342.757 1.23 1.54 2.442 2.313 3.663.348.549.708 1.09 1.035 1.652.234.4.383.433.644.006 1.063-1.742 2.153-3.466 3.233-5.197.114-.183.2-.386.423-.466.612-.218.936.014.937.686.001 3.125.002 6.249-.004 9.374 0 .271.09.611-.343.67-.486.066-.6-.183-.599-.635.01-2.503.005-5.006.005-7.51v-.869l-.123-.037zm107.851 3.08c0-.277.02-.556-.003-.832-.135-1.662-1.3-2.841-2.99-3.018-.951-.1-1.907-.12-2.865-.114-.414.003-.583.133-.581.516.01 2.358.01 4.716 0 7.074-.002.381.165.515.58.517.938.004 1.873-.042 2.809-.092 1.012-.054 1.786-.451 2.346-1.21.638-.866.731-1.842.704-2.841zm-29.359.426c.014-.997-.21-2.089-.913-3.044-1.228-1.67-4.16-1.814-5.464-.273-1.519 1.793-1.516 4.973-.062 6.825 1.22 1.555 4.315 1.55 5.49-.155.671-.975.953-2.036.95-3.353zm1.132.094c.024 1.541-.35 2.884-1.346 4.056-1.672 1.968-6.542 2.226-7.98-1.468-.655-1.685-.65-3.393.002-5.079.655-1.693 2.25-2.744 3.985-2.853 3.831-.241 5.446 2.627 5.339 5.344zm-45.263.048c0 1.321.009 2.643-.006 3.964-.004.4.135.561.526.553.866-.019 1.734.005 2.6-.016a3.564 3.564 0 0 0 1.679-.46c1.389-.784 2.058-2.024 2.224-3.642.243-2.37-1.216-4.421-3.48-4.808-.987-.169-1.979-.048-2.966-.1-.437-.023-.593.143-.586.6.022 1.303.008 2.607.009 3.91zm-.878-.055c0-1.56.014-3.12-.009-4.68-.007-.502.156-.692.642-.67 1.271.06 2.546-.08 3.816.095 3.187.44 4.677 3.347 4.331 6.066-.375 2.948-2.327 4.651-5.194 4.658-.99.002-1.982-.017-2.973.008-.456.011-.627-.149-.62-.632.02-1.615.007-3.23.007-4.845zm15.77 4.427c2.305 0 3.883-1.81 3.884-4.456.001-2.654-1.522-4.35-3.864-4.394-2.314-.044-3.92 1.615-3.9 4.386.022 2.774 1.593 4.475 3.88 4.464zm.02-9.681c2.78.003 4.64 2.11 4.637 5.255-.002 3.088-1.934 5.271-4.663 5.27-2.716-.001-4.682-2.217-4.68-5.277 0-3.153 1.883-5.252 4.707-5.248zm-39.554-.094c1.29-.036 2.551.299 3.486 1.392.142.167.414.339.091.57-.245.175-.483.334-.759-.01-.602-.75-1.458-1.03-2.415-1.074-.902-.041-1.806-.053-2.649.338-.698.323-1.2.767-1.222 1.582-.016.63.255 1.057.822 1.345.76.384 1.6.501 2.426.66.81.157 1.625.286 2.401.567 1.39.501 1.948 1.24 1.933 2.564-.013 1.194-.706 2.075-1.991 2.502-1.685.56-3.352.53-4.987-.184a3.899 3.899 0 0 1-1.626-1.284c-.132-.181-.424-.395-.05-.62.28-.168.54-.292.812.072.593.793 1.446 1.226 2.431 1.434a5.71 5.71 0 0 0 3.05-.192c.934-.316 1.421-.962 1.43-1.788.008-.625-.256-1.097-.818-1.428-.752-.445-1.606-.58-2.451-.746-1.01-.198-2.024-.361-2.979-.772-1.885-.81-1.71-3.055-.452-3.994.996-.745 2.157-.953 3.517-.934zm50.27 5.394c.001-1.759.52-3.293 1.907-4.44 2.215-1.831 5.648-.922 6.703 1.768.076.192.178.403-.103.492-.27.085-.572.332-.816-.047a2.633 2.633 0 0 1-.218-.438c-.997-2.478-4.313-2.124-5.435-.49-1.178 1.714-1.283 4.807-.103 6.408 1.431 1.94 4.358 1.747 5.514-.37.13-.238.253-.488.324-.748.13-.476.42-.46.787-.331.451.158.239.45.143.706-.708 1.917-2.005 2.91-3.805 2.921-2.38.015-3.664-.804-4.453-2.866-.141-.371-.228-.765-.327-1.152-.118-.462-.122-.937-.117-1.413zm-73.63-4.308c-.082.117-.132.167-.158.229-.784 1.874-1.563 3.751-2.35 5.624-.15.356.01.411.292.41 1.453-.003 2.906-.01 4.359.006.428.004.407-.18.272-.498-.294-.683-.574-1.372-.861-2.059l-1.555-3.712zm-.007-1.075c.41-.072.54.233.673.544.966 2.287 1.936 4.573 2.904 6.859.389.918.782 1.833 1.164 2.755.074.181.291.442.027.563-.265.121-.63.188-.81-.214a40.401 40.401 0 0 1-.818-1.896c-.13-.334-.311-.476-.66-.473-1.659.014-3.318.015-4.977-.001-.37-.003-.571.149-.706.498-.228.592-.487 1.172-.725 1.76-.108.266-.278.388-.56.39-.476.001-.525-.057-.329-.519 1.378-3.254 2.76-6.506 4.133-9.763.14-.335.3-.579.684-.503zm36.322 3.816c0-1.084.003-2.167-.002-3.25-.001-.315.024-.579.48-.58.454-.001.49.255.49.573-.003 2.06-.007 4.118.002 6.177.006 1.399.814 2.528 2.104 2.978 1.443.502 2.952.172 3.945-.882.606-.644.817-1.428.822-2.26.009-1.987.001-3.974.004-5.96 0-.286-.05-.607.428-.622.319-.01.536.073.535.415-.008 2.239.095 4.484-.05 6.715-.144 2.237-2.189 3.803-4.51 3.688-2.53-.125-4.233-1.776-4.247-4.12-.006-.958-.001-1.915 0-2.872zm-3.997 2.01v4.356c0 .324.02.637-.469.632-.494-.004-.457-.33-.457-.645l-.001-8.548c0-.757-.004-.758-.787-.76l-2.52-.001c-.307 0-.618.012-.61-.437.008-.393.273-.436.573-.436l7.724-.001c.319 0 .556.082.541.463-.014.351-.249.41-.537.41-.952 0-1.904.02-2.855-.005-.469-.012-.615.167-.61.615.02 1.452.008 2.904.008 4.357zm67.834-.927c0-1.44.006-2.879-.004-4.319-.003-.36.068-.587.583-.594.538-.007.63.221.63.61-.009 2.532-.005 5.064-.004 7.596 0 .76.003.76.853.762 1.382.002 2.763.002 4.144 0 .336 0 .65-.006.663.409.014.432-.286.462-.664.461-1.842-.005-3.684-.016-5.524.006-.538.006-.692-.173-.685-.614.021-1.438.008-2.878.008-4.317zM2 119.633v-4.786c0-.325.006-.642.47-.644.312 0 .493.118.498.443.005.275.008.55.008.825 0 2.953.003 5.905-.005 8.858 0 .253.095.577-.3.67-.458.11-.666-.056-.668-.58-.007-1.595-.002-3.19-.003-4.786zm82.49.029v-4.853c0-.308-.01-.606.47-.606.31 0 .503.096.505.407 0 .055.005.11.005.165v9.705c0 .3-.041.543-.474.551-.466.008-.509-.245-.508-.572.005-1.6.003-3.198.002-4.797zm40.832 4.643c.019.845-.061 1.666-.595 2.318-.152.187-.3.565-.61.266-.268-.26-.294-.553 0-.846.182-.182.257-.445.315-.709.035-.165.012-.29-.122-.406-.368-.324-.573-1.14-.365-1.552.226-.449.632-.206.96-.243.254-.03.407.132.415.434.008.246.002.492.002.738zm-3.536-.73c.088.411-.15.459-.497.471-.389.014-.457-.163-.466-.489-.01-.367.12-.496.502-.495.395.002.53.149.461.512z"/>
  </g>
</svg>
