<svg xmlns="http://www.w3.org/2000/svg" width="114" height="33">
  <path fill="#FFF" d="M106.236 1H113l-9.343 11.463v10.841H97.41V12.463l-6.65-8.131-12.323 14.68v.114h15.476v4.178H70.241v-2.767L83.137 5.235H65.77v18.07h-6.133V5.234h-6.879L46.97 12.18l9.343 11.124h-6.935l-5.847-7.002-5.846 7.002H16.992l-5.79-8.64c-1.604-2.37-3.438-5.25-4.7-7.848h-.171c.229 2.993.286 6.155.286 9.769v6.72H1V1h7.165l5.617 8.188c1.376 1.976 2.637 4.235 3.783 6.38V1h20.119l5.789 7.002C45.422 5.63 47.428 3.372 49.377 1H94.83l5.675 7.002c1.891-2.372 3.84-4.63 5.731-7.002zM34.187 19.182l5.847-7.058-5.847-7.002H23.641v4.97h8.597V6.42l4.815 5.76-4.815 5.759v-3.67h-8.597v4.912h10.546zm-18.743 9.091v-.452h3.153v.452h-1.319v3.67h-.573v-3.67h-1.26zm7.222 1.807v1.412h2.236v.452H22.15V27.82h2.694v.452h-2.178v1.355h2.064v.452h-2.064zm5.732-.226c0-1.355.745-2.033 2.178-1.92.401 0 .803.057 1.147.17v.452c-.344-.17-.688-.226-1.09-.226-1.146 0-1.719.508-1.719 1.58 0 1.13.573 1.695 1.72 1.695.343 0 .745-.113 1.089-.226v.452a3.75 3.75 0 0 1-1.147.169c-1.433 0-2.178-.734-2.178-2.146zm10.203-.226v-1.807h.516v4.123H38.6V30.08h-2.465v1.864h-.573V27.82h.573v1.807H38.6zm7.509 1.525v-3.332h.515v4.123h-.573l-2.522-3.332v3.332h-.516V27.82h.574l2.522 3.332zm6.362-3.332c1.375 0 2.063.678 2.063 2.09 0 1.411-.688 2.089-2.063 2.089-1.376 0-2.064-.734-2.064-2.09 0-1.41.688-2.089 2.064-2.089zm0 3.727c.974 0 1.49-.564 1.49-1.637s-.516-1.638-1.49-1.638c-1.032 0-1.548.565-1.548 1.638s.516 1.637 1.548 1.637zm6.362-3.727v3.67h2.178v.453h-2.751V27.82h.573zm7.68 0c1.376 0 2.064.678 2.064 2.09 0 1.411-.688 2.089-2.063 2.089-1.376 0-2.064-.734-2.064-2.09 0-1.41.688-2.089 2.064-2.089zm0 3.727c.975 0 1.491-.564 1.491-1.637s-.516-1.638-1.49-1.638c-1.032 0-1.548.565-1.548 1.638s.516 1.637 1.548 1.637zm5.618-1.694c0-1.355.688-2.033 2.235-1.92.402 0 .803.057 1.147.17v.452c-.344-.17-.688-.226-1.09-.226-1.146 0-1.719.508-1.719 1.58 0 1.13.516 1.695 1.662 1.695.172 0 .344 0 .574-.057v-1.411h.515v1.694a3.374 3.374 0 0 1-1.089.169c-1.49 0-2.235-.734-2.235-2.146zm7.222-2.033h.516v4.123h-.516V27.82zm5.101 2.26v1.41h2.179v.453h-2.752V27.82h2.752v.452h-2.179v1.355h2.064v.452h-2.064zm7.566-.453c.918 0 1.319.396 1.376 1.13 0 .79-.516 1.186-1.605 1.186-.516 0-.974-.057-1.433-.17v-.452c.459.17.917.226 1.433.226.745 0 1.09-.282 1.09-.79 0-.452-.287-.678-.803-.678h-.516c-.86 0-1.318-.395-1.318-1.13 0-.79.573-1.185 1.662-1.185.516 0 .974.056 1.375.17v.508a3.906 3.906 0 0 0-1.375-.226c-.745 0-1.147.226-1.147.734 0 .452.23.677.746.677h.515z"/>
</svg>
