<svg xmlns="http://www.w3.org/2000/svg" width="24" height="24">
  <path d="M21.17 5.009H2.824A.83.83 0 0 0 2 5.845v11.38a.83.83 0 0 0 .824.837H21.17a.83.83 0 0 0 .824-.836V5.845a.83.83 0 0 0-.824-.836zm-18.346.656H21.17c.077 0 .145.052.168.127l-9.341 5.923-9.341-5.923a.177.177 0 0 1 .168-.127zm-.177.876L9.366 10.8l-6.72 5.41V6.54zm18.7 10.68c0 .1-.08.18-.177.18H2.824a.178.178 0 0 1-.177-.18v-.175l7.301-5.857 1.876 1.191a.32.32 0 0 0 .345 0l1.876-1.19 7.302 5.856v.175zm0-1.011l-6.737-5.393 6.737-4.237v9.63z"/>
</svg>
