<svg xmlns="http://www.w3.org/2000/svg" width="24" height="24">
  <path d="M5.425 3.01c.629 0 1.228.243 1.677.73.45.458.719 1.068.689 1.708 0 .67-.27 1.28-.719 1.737-.45.457-1.018.7-1.617.7h-.06c-.599.031-1.227-.243-1.676-.7A2.465 2.465 0 0 1 3 5.448c0-.64.24-1.25.719-1.738a2.352 2.352 0 0 1 1.706-.7zm1.228 3.748c.36-.335.539-.823.539-1.31 0-.488-.18-.945-.54-1.31a1.732 1.732 0 0 0-1.227-.519c-.509 0-.958.183-1.287.518-.36.366-.54.823-.54 1.31 0 .488.18.976.54 1.311a1.8 1.8 0 0 0 1.257.518c.48.03.929-.183 1.258-.518zm-.06 1.737c.479 0 .898.427.898.915v10.697c0 .457-.419.884-.898.884H4.198c-.48 0-.899-.427-.899-.915V9.41c0-.519.39-.915.869-.915h2.425zm.3 11.612V9.41c0-.153-.15-.305-.3-.305H4.168c-.15 0-.27.152-.27.305v10.666c0 .153.15.305.3.305h2.395c.15 0 .3-.122.3-.274zm9.88-11.917c2.365 0 4.192 1.89 4.192 4.328v7.863c0 .305-.3.61-.599.61h-2.994c-.3 0-.599-.305-.599-.61v-6.552c0-.549-.12-.976-.42-1.25a1.749 1.749 0 0 0-1.257-.518c-.928 0-1.646.792-1.646 1.798v6.583c0 .335-.33.548-.6.548H9.558c-.27 0-.599-.213-.599-.548V9.074c0-.335.33-.579.6-.579h2.993c.3 0 .6.305.6.61v.426a4.013 4.013 0 0 1 2.993-1.34h.63zm3.593 12.16v-7.832c0-2.072-1.557-3.718-3.563-3.718h-.629c-1.108 0-2.156.549-2.754 1.402l-.839.853v-1.92l-.03-.03H9.587V20.38h3.294v-6.522c0-1.34.988-2.377 2.245-2.408.63 0 1.228.244 1.677.701.39.397.569.945.569 1.677l.03 6.552h2.934l.03-.03z"/>
</svg>
