<svg xmlns="http://www.w3.org/2000/svg" 
    xmlns:xlink="http://www.w3.org/1999/xlink" viewBox="0 0 153.6 84">
    <defs>
        <style>.cls-1{fill:none;}.cls-2{clip-path:url(#clip-path);}.cls-3{fill:#162332;}.cls-4{fill:#21274a;}.cls-5{fill:#2f4968;}</style>
        <clipPath id="clip-path">
            <rect class="cls-1" width="153.6" height="84"/>
        </clipPath>
    </defs>
    <title>BKK - Tablet</title>
    <g id="Layer_2" data-name="Layer 2">
        <g class="cls-2">
            <rect class="cls-3" x="0.04" y="-0.25" width="153.6" height="84"/>
            <path class="cls-4" d="M9.94,25.71h0l-16.63-.13A1.52,1.52,0,0,1-8.22,24,1.52,1.52,0,0,1-6.7,22.54h0l16.63.13a1.52,1.52,0,0,1,0,3Z"/>
            <path class="cls-4" d="M36.37,37.18h-.09c-.18,0-18.06-1-22.31-1.32-2.22-.15-3.92-.51-5-1.75s-1.16-3-.94-5.48c.37-4.22,3.88-40,3.91-40.32a1.52,1.52,0,0,1,1.66-1.36A1.52,1.52,0,0,1,15-11.4c0,.36-3.55,36.08-3.91,40.28-.11,1.26-.18,2.77.22,3.24s2.27.65,2.87.69c4.22.29,22.09,1.31,22.27,1.32a1.52,1.52,0,0,1-.09,3Z"/>
            <path class="cls-4" d="M30.1,95.94h-.16a1.52,1.52,0,0,1-1.35-1.67L38.84-4.46a1.52,1.52,0,0,1,1.67-1.35,1.52,1.52,0,0,1,1.35,1.67L31.61,94.58A1.52,1.52,0,0,1,30.1,95.94Z"/>
            <path class="cls-4" d="M46,93.43A1.52,1.52,0,0,1,44.48,92l-.89-20.36v-.1l8-83.88a1.52,1.52,0,0,1,1.66-1.37,1.52,1.52,0,0,1,1.37,1.66l-8,83.78.88,20.15a1.52,1.52,0,0,1-1.45,1.58Z"/>
            <path class="cls-4" d="M80.11,35.78a6.86,6.86,0,0,1-.93-.07c-3-.42-4.06-1-4.38-1.22A1.52,1.52,0,0,1,76.51,32a11,11,0,0,0,3.08.72c2.19.3,2.81-1.39,3-2.43l.2-1.2c.07-.38.12-.69.54-3.21.44-2.69-.13-3.35-1-4.34-.19-.22-.39-.45-.58-.7a5.85,5.85,0,0,0-4-2.29c-2.34-.4-18.74-2.75-18.9-2.77a1.52,1.52,0,1,1,.43-3c.68.1,16.61,2.38,19,2.79A8.83,8.83,0,0,1,84.13,19c.16.2.32.39.48.57,1.35,1.55,2.33,3,1.71,6.83-.42,2.55-.47,2.86-.54,3.24l-.2,1.18C85.14,33.36,83.3,35.78,80.11,35.78Z"/>
            <path class="cls-4" d="M71,83.72h-.14a1.52,1.52,0,0,1-1.37-1.66l6.17-65.33a1.52,1.52,0,0,1,3,.29L72.52,82.34A1.52,1.52,0,0,1,71,83.72Z"/>
            <path class="cls-4" d="M71.62,77.26l-.23,0-26.5-4.09a1.52,1.52,0,1,1,.46-3l26.5,4.09a1.52,1.52,0,0,1-.23,3Z"/>
            <path class="cls-4" d="M95.77,74.22h-.18L71.83,71.35a1.52,1.52,0,1,1,.36-3L96,71.19a1.52,1.52,0,0,1-.18,3Z"/>
            <path class="cls-4" d="M26.68,36.62h-.11A1.52,1.52,0,0,1,25.16,35l3.42-48a1.54,1.54,0,0,1,1.62-1.41,1.52,1.52,0,0,1,1.41,1.62l-3.42,48A1.52,1.52,0,0,1,26.68,36.62Z"/>
            <path class="cls-4" d="M134.66,79.11l-3-.68s5.24-22.69,6.45-27.89c1.17-5,.91-5.1-2.36-6.07-4.5-1.33-33.35-9.74-33.35-9.74l.85-2.92s28.85,8.41,33.36,9.74c5.69,1.68,5.73,4.24,4.46,9.67C139.9,56.43,134.66,79.11,134.66,79.11Z"/>
            <path class="cls-4" d="M166.15,60.81a1.52,1.52,0,0,1-.39-.05L122.93,49.31a1.52,1.52,0,0,1,.79-2.94l42.82,11.45a1.52,1.52,0,0,1-.39,3Z"/>
            <path class="cls-4" d="M119.06,80.28H119a1.52,1.52,0,0,1-1.42-1.62l1.39-20.78c.45-1.75,11-42.79,11.81-45.8.78-2.76,2.87-3.71,6.21-2.85l.33.08c1.1.24,27.93,7.54,31,8.37a1.52,1.52,0,0,1-.8,2.93c-11.95-3.25-30-8.15-30.85-8.34l-.43-.11c-1.88-.49-2.24-.27-2.52.73-.81,2.89-11.07,42.93-11.75,45.6l-1.34,20.36A1.52,1.52,0,0,1,119.06,80.28Z"/>
            <path class="cls-4" d="M163.32,36.39a1.52,1.52,0,0,1-.47-.07c-.14,0-14.35-4.64-16.46-5.3-1.27-.4-4.66-1.46-3.81-5.57.47-2.27,2.69-11.92,2.78-12.33a1.52,1.52,0,1,1,3,.68c0,.1-2.3,10-2.77,12.27-.2,1-.29,1.42,1.74,2.06s15.9,5.12,16.49,5.31a1.52,1.52,0,0,1-.47,3Z"/>
            <path class="cls-4" d="M97,61.41l-.23,0c-.19,0-4.55-.7-6.3-1-2.52-.5-3.65-2-3.36-4.52.13-1.11.38-3.36.59-5.33L88,47.67c.3-2.74,1.91-4,4.65-3.74,1.93.21,7,.87,7.23.9a1.52,1.52,0,1,1-.39,3c-.05,0-5.26-.69-7.16-.89-1.06-.11-1.19,0-1.3,1.06l-.31,2.82c-.21,2-.46,4.25-.59,5.37-.1.86-.12,1,.93,1.18,1.68.33,6.12,1,6.16,1a1.52,1.52,0,0,1-.23,3Z"/>
            <path class="cls-5" d="M164.23,7.62l-2-.48C148.06,3.74,133.4.22,114.65.5h-.35l-.35,0c-6.59-.82-13.23-2-20.91-3.7l2.19-9.89c7.23,1.6,13.48,2.71,19.63,3.49,19.84-.24,35.74,3.56,49.75,6.93l2,.48Z"/>
            <path class="cls-4" d="M95,83.38h-.27a2.53,2.53,0,0,1-2.25-2.79l2.38-22.2L109.16-8.71a2.54,2.54,0,0,1,3-1.95,2.53,2.53,0,0,1,1.95,3l-14.33,67-2.32,21.8A2.53,2.53,0,0,1,95,83.38Z"/>
            <path class="cls-4" d="M11.69,88.55l-.22,0a1.52,1.52,0,0,1-1.29-1.72l7.48-52.38a1.52,1.52,0,1,1,3,.43L13.19,87.25A1.52,1.52,0,0,1,11.69,88.55Z"/>
        </g>
    </g>
</svg>