<svg xmlns="http://www.w3.org/2000/svg" xmlns:xlink="http://www.w3.org/1999/xlink" viewBox="0 0 84 85.2"><defs><style>.cls-1{fill:none;}.cls-2{clip-path:url(#clip-path);}.cls-3{fill:#162332;}.cls-4{fill:#21274a;}.cls-5{fill:#2f4968;}</style><clipPath id="clip-path"><rect class="cls-1" width="84" height="85.2"/></clipPath></defs><title>BKK - Mobile</title><g id="Layer_2" data-name="Layer 2"><g class="cls-2"><rect class="cls-3" y="0.05" width="84" height="85.06"/><path class="cls-4" d="M14.63,53a5.07,5.07,0,0,1-.69,0,7.74,7.74,0,0,1-3.25-.91A1.13,1.13,0,0,1,12,50.26h0a9.5,9.5,0,0,0,2.23.5,1.88,1.88,0,0,0,2.2-1.81l.15-.89c0-.29.09-.51.4-2.4s-.1-2.5-.74-3.24c-.14-.17-.29-.34-.43-.52a4.33,4.33,0,0,0-3-1.71c-1.73-.3-13.9-2.05-14-2.07a1.13,1.13,0,0,1-1-1.28,1.12,1.12,0,0,1,1.28-1c.5.07,12.32,1.77,14.08,2.08a6.55,6.55,0,0,1,4.37,2.55c.12.15.24.29.36.43,1,1.15,1.73,2.26,1.26,5.09-.31,1.91-.35,2.13-.4,2.42l-.15.88A4.13,4.13,0,0,1,14.63,53Z"/><path class="cls-4" d="M7.87,88.8H7.76a1.13,1.13,0,0,1-1-1.23l4.58-48.72a1.13,1.13,0,0,1,2.25.21L9,87.78A1.13,1.13,0,0,1,7.87,88.8Z"/><path class="cls-4" d="M8.32,84H8.15l-19.66-3a1.13,1.13,0,0,1-.94-1.29,1.13,1.13,0,0,1,1.29-.94l19.66,3A1.13,1.13,0,0,1,8.32,84Z"/><path class="cls-4" d="M26.24,81.72H26.1L8.48,79.58a1.13,1.13,0,1,1,.27-2.24l17.62,2.13a1.13,1.13,0,0,1-.13,2.25Z"/><path class="cls-4" d="M52.9,94.82l-2.2-.51s6.08-26.37,7-30.25.67-3.81-1.75-4.53c-3.34-1-24.74-7.26-24.74-7.26l.63-2.17s21.4,6.27,24.75,7.27c4.22,1.26,4.25,3.16,3.31,7.21C59,68.45,52.9,94.82,52.9,94.82Z"/><path class="cls-4" d="M71.84,96.56a1.13,1.13,0,0,1-1.09-1.42L87.29,33a1.13,1.13,0,1,1,2.18.58L72.93,95.72A1.13,1.13,0,0,1,71.84,96.56Z"/><path class="cls-4" d="M78.45,71.71a1.13,1.13,0,0,1-.29,0L46.39,63.14A1.13,1.13,0,1,1,47,61l31.77,8.54a1.13,1.13,0,0,1-.29,2.22Z"/><path class="cls-4" d="M43.06,93.25H43A1.13,1.13,0,0,1,41.93,92l1.49-22.51c.33-1.3,8.13-31.91,8.76-34.16.58-2.05,2.13-2.77,4.61-2.12l.24.06c.82.18,20.72,5.62,23,6.24a1.13,1.13,0,0,1-.6,2.18c-8.86-2.42-22.27-6.08-22.88-6.22l-.32-.08c-1.38-.36-1.66-.2-1.87.55-.6,2.16-8.21,32-8.72,34l-1.45,22.2A1.13,1.13,0,0,1,43.06,93.25Z"/><path class="cls-4" d="M71.56,69.86a1.13,1.13,0,0,1-1.09-1.45l14.92-51a1.13,1.13,0,0,1,2.17.63l-14.92,51A1.13,1.13,0,0,1,71.56,69.86Z"/><path class="cls-4" d="M76,53.45s-10.62-3.46-12.21-4c-.95-.3-3.46-1.09-2.83-4.15.35-1.69,2-8.89,2.06-9.2a1.13,1.13,0,1,1,2.2.5c0,.07-1.71,7.48-2.05,9.15-.16.79-.15,1.09,1.29,1.54,1.59.5,12.23,4,12.23,4Z"/><path class="cls-4" d="M9.62,12.47l-.2,0a1.13,1.13,0,0,1-.92-1.31L9.94,2.95a1.13,1.13,0,0,1,2.23.39l-1.43,8.19A1.13,1.13,0,0,1,9.62,12.47Z"/><path class="cls-4" d="M14.66,10.41h-.15a1.13,1.13,0,0,1-1-1.27l1.68-13a1.13,1.13,0,0,1,1.27-1,1.13,1.13,0,0,1,1,1.27l-1.68,13A1.13,1.13,0,0,1,14.66,10.41Z"/><path class="cls-4" d="M27.14,72.16H27c-.14,0-3.38-.52-4.67-.78A2.76,2.76,0,0,1,19.81,68c.1-.82.28-2.49.43-4l.23-2.14a2.81,2.81,0,0,1,3.45-2.79c1.45.15,5.37.67,5.37.67L29,62s-3.88-.51-5.31-.66c-.78-.08-.87,0-1,.79l-.23,2.13c-.16,1.47-.34,3.15-.44,4-.08.64-.09.73.69.88,1.24.25,4.54.76,4.57.76a1.13,1.13,0,0,1-.17,2.25Z"/><path class="cls-4" d="M92,15.44h-.13c-1.17-.08-28.85-1.93-39.3-3.53S-11.12,1.26-11.65,1.17A1.88,1.88,0,0,1-13.19-1,1.89,1.89,0,0,1-11-2.55c.54.09,53.77,9.15,64.13,10.73s38.69,3.47,39,3.49A1.88,1.88,0,0,1,92,15.44Z"/><path class="cls-5" d="M96.49,36.23,85,33.86c-3.16-.66-6.2-1.4-9.42-2.18-10.51-2.54-21.41-5.15-35.29-5H40l-.26,0A215.37,215.37,0,0,1,14,21.52C7,19.76.84,18.25-4.62,17.85l.54-7.51c6.1.44,12.51,2,19.92,3.87a210.72,210.72,0,0,0,24.55,5c14.73-.18,26.51,2.65,36.91,5.17,3.17.76,6.16,1.49,9.19,2.12L98,28.85Z"/><path class="cls-4" d="M25.64,88.54h-.2a1.88,1.88,0,0,1-1.67-2.07l1.76-16.55L41.6-5.65A1.88,1.88,0,0,1,43.84-7.1a1.88,1.88,0,0,1,1.45,2.23L29.23,70.6,27.51,86.86A1.88,1.88,0,0,1,25.64,88.54Z"/></g></g></svg>