<svg xmlns="http://www.w3.org/2000/svg" 
    xmlns:xlink="http://www.w3.org/1999/xlink" viewBox="0 0 84 85.2">
    <defs>
        <style>.cls-1{fill:none;}.cls-2{clip-path:url(#clip-path);}.cls-3{fill:#162332;}.cls-4{fill:#21274a;}</style>
        <clipPath id="clip-path">
            <rect class="cls-1" width="84" height="85.2"/>
        </clipPath>
    </defs>
    <title>CNX - Mobile</title>
    <g id="Layer_2" data-name="Layer 2">
        <g class="cls-2">
            <rect class="cls-3" width="84" height="85.2"/>
            <path class="cls-4" d="M11.17,91.1h-.11a1.13,1.13,0,0,1-1-1.23c.19-2-.28-7.77-.78-13.83-.44-5.34-.94-11.38-1.11-16.34-.4-11.42,3.14-47.07,5.47-66.85a1.14,1.14,0,0,1,1.25-1,1.13,1.13,0,0,1,1,1.25C13,17.82,10.06,49.53,10.41,59.61c.17,4.91.67,10.93,1.1,16.24.53,6.44,1,12,.77,14.23A1.13,1.13,0,0,1,11.17,91.1Z"/>
            <path class="cls-4" d="M51.67,79.61l-.23,0L-3.31,68a1.13,1.13,0,0,1-.87-1.34,1.13,1.13,0,0,1,1.34-.87L51.9,77.38a1.13,1.13,0,0,1-.23,2.24Z"/>
            <path class="cls-4" d="M69.66,68.49A15.61,15.61,0,0,1,67,68.23C61,67.18,9.58,58.09,9.06,58l-.22,0L-9.84,46.28a1.13,1.13,0,0,1-.36-1.56,1.13,1.13,0,0,1,1.56-.36L9.67,55.81C13.33,56.46,61.55,65,67.39,66c5.25.91,5.8-.85,6.54-4.94.79-4.36,12.54-56.66,13-58.88a1.13,1.13,0,1,1,2.21.5c-.12.54-12.24,54.48-13,58.79C75.43,65.42,74.44,68.49,69.66,68.49Z"/>
            <path class="cls-4" d="M88.07,12.17a2.25,2.25,0,0,1-1.13-.31L63.16-2A2.26,2.26,0,0,1,62.34-5a2.26,2.26,0,0,1,3.09-.82L89.21,8a2.26,2.26,0,0,1-1.14,4.21Z"/>
            <path class="cls-4" d="M63.32,92h0a1.13,1.13,0,0,1-1.12-1.14l.15-14.37a1.13,1.13,0,0,1,1.13-1.12h0a1.13,1.13,0,0,1,1.12,1.14l-.15,14.37A1.13,1.13,0,0,1,63.32,92Z"/>
            <path class="cls-4" d="M41.33,88.28a1.14,1.14,0,0,1-.33,0L10.23,79-4.44,75.76a1.13,1.13,0,0,1-.86-1.35,1.13,1.13,0,0,1,1.35-.86L10.8,76.81l30.86,9.26a1.13,1.13,0,0,1-.33,2.21Z"/>
            <path class="cls-4" d="M50.77,88.93h-.15a1.13,1.13,0,0,1-1-1.27c0-.31,4.2-30.84,4.9-36.25.63-4.94,0-6.43-5.84-7.49-6.33-1.15-38.13-6.52-38.45-6.57L-3.23,36a1.13,1.13,0,0,1-1-1.23,1.13,1.13,0,0,1,1.23-1L10.55,35.1c.4.06,32.21,5.43,38.55,6.59,6.71,1.22,8.5,3.56,7.68,10-.69,5.42-4.86,36-4.9,36.27A1.13,1.13,0,0,1,50.77,88.93Z"/>
            <path class="cls-4" d="M40.42,33.17c-.52,0-1.08,0-1.67-.09-1.82-.18-15.93-1.65-42-4.39a1.13,1.13,0,0,1-1-1.24,1.13,1.13,0,0,1,1.24-1C23,29.18,37.16,30.66,39,30.83c4.54.44,5.93-.87,7.77-5.06,2-4.52,13.95-30.93,14.07-31.2A1.13,1.13,0,0,1,62.3-6a1.13,1.13,0,0,1,.56,1.5c-.12.27-12.08,26.67-14.06,31.18C47,30.9,45,33.17,40.42,33.17Z"/>
        </g>
    </g>
</svg>