<svg xmlns="http://www.w3.org/2000/svg" xmlns:xlink="http://www.w3.org/1999/xlink" viewBox="0 0 153.6 84"><defs><style>.cls-1{fill:none;}.cls-2{clip-path:url(#clip-path);}.cls-3{fill:#162332;}.cls-4{fill:#21274a;}</style><clipPath id="clip-path"><rect className="cls-1" width="153.6" height="84"/></clipPath></defs><title>CNX - Tablet</title><g id="Layer_2" data-name="Layer 2"><g className="cls-2"><rect className="cls-3" width="153.6" height="84"/><path className="cls-4" d="M64.51,87.41a1.6,1.6,0,0,1-1.6-1.55C62.36,70.23,67,22.4,70.32-5.93l.34-2.94a1.6,1.6,0,0,1,1.78-1.4,1.6,1.6,0,0,1,1.4,1.78L73.5-5.56c-4,34.91-7.87,77.48-7.39,91.32a1.6,1.6,0,0,1-1.54,1.66Z"/><path className="cls-4" d="M95.9,89.06l-.28,0L63.89,83.42,37.41,66.87a1.6,1.6,0,1,1,1.7-2.72L65.06,80.37l31.12,5.51a1.6,1.6,0,0,1-.28,3.18Z"/><path className="cls-4" d="M161.28,9.87a3.19,3.19,0,0,1-1.61-.43L140.87-1.49a3.2,3.2,0,0,1-1.16-4.38A3.21,3.21,0,0,1,144.09-7L162.89,3.9a3.2,3.2,0,0,1-1.61,6Z"/><path className="cls-4" d="M3.63,94H3.54A1.6,1.6,0,0,1,2,92.26c1.4-25,5.32-92.81,5.36-93.49A1.6,1.6,0,0,1,9-2.74h.09A1.6,1.6,0,0,1,10.59-1c0,.68-4,68.47-5.36,93.48A1.6,1.6,0,0,1,3.63,94Z"/><path className="cls-4" d="M5.12,67.66l-.23,0-9.11-1.33a1.6,1.6,0,0,1-1.35-1.82,1.6,1.6,0,0,1,1.82-1.35l9.11,1.33a1.6,1.6,0,0,1-.23,3.19Z"/><path className="cls-4" d="M128.36,90.06h-.22a1.6,1.6,0,0,1-1.37-1.8c.87-6.46,1.59-11.84,1.88-14.12,1-7.79-.87-9.27-8.28-10.61-8.83-1.61-52.61-9-54.43-9.3L-5,47.28a1.6,1.6,0,0,1-1.44-1.75A1.6,1.6,0,0,1-4.68,44.1L66.42,51c.45.08,45.53,7.68,54.53,9.32,9.51,1.73,12.05,5,10.89,14.17-.29,2.29-1,7.67-1.89,14.14A1.6,1.6,0,0,1,128.36,90.06Z"/><path className="cls-4" d="M108.64,48.29c-.74,0-1.53,0-2.37-.12-4.91-.48-72.39-7.58-112.18-11.77a1.6,1.6,0,0,1-1.42-1.76,1.6,1.6,0,0,1,1.76-1.42C34.21,37.4,101.68,44.5,106.58,45c6.45.63,8.4-1.24,11-7.17C120.41,31.4,137.36-6,137.53-6.41a1.6,1.6,0,0,1,2.12-.8,1.6,1.6,0,0,1,.8,2.12c-.17.38-17.11,37.79-19.92,44.18C117.89,45.08,115.19,48.29,108.64,48.29Z"/></g></g></svg>