<svg xmlns="http://www.w3.org/2000/svg" xmlns:xlink="http://www.w3.org/1999/xlink" viewBox="0 0 288 150"><defs><style>.cls-1{fill:none;}.cls-2{clip-path:url(#clip-path);}.cls-3{fill:#162332;}.cls-4{fill:#21274a;}</style><clipPath id="clip-path"><rect class="cls-1" width="288" height="150"/></clipPath></defs><title>CNX - Desktop</title><g id="Layer_2" data-name="Layer 2"><g class="cls-2"><rect class="cls-3" width="288" height="150"/><path class="cls-4" d="M-4.34,83.24a2.07,2.07,0,0,1-.73-.13,2.08,2.08,0,0,1-1.21-2.67L25-2.93a2.07,2.07,0,0,1,2.67-1.21,2.08,2.08,0,0,1,1.21,2.67L-2.4,81.89A2.08,2.08,0,0,1-4.34,83.24Z"/><path class="cls-4" d="M161.87,166.26h-.2A2.07,2.07,0,0,1,159.8,164c.36-3.74-.51-14.27-1.43-25.41-.81-9.8-1.72-20.9-2-30-.74-21,5.77-86.44,10-122.77a2.07,2.07,0,0,1,2.3-1.82,2.07,2.07,0,0,1,1.82,2.3c-5.34,45.4-10.67,103.63-10,122.13.32,9,1.23,20.06,2,29.82,1,11.82,1.81,22,1.42,26.15A2.08,2.08,0,0,1,161.87,166.26Z"/><path class="cls-4" d="M236.24,145.16a2.11,2.11,0,0,1-.43,0l-156.29-33L-3.94,92.87A2.08,2.08,0,0,1-5.5,90.38,2.08,2.08,0,0,1-3,88.83L80.42,108l156.25,33a2.08,2.08,0,0,1-.43,4.11Z"/><path class="cls-4" d="M269.29,124.73a28.71,28.71,0,0,1-4.89-.47c-11.1-1.93-105.46-18.63-106.41-18.8l-.4-.07L123.29,83.94a2.08,2.08,0,1,1,2.2-3.52l33.62,21c6.73,1.19,95.27,16.86,106,18.73,9.64,1.68,10.64-1.57,12-9.07,1.46-8,14.48-66,15-68.44a2.08,2.08,0,0,1,4.05.91c-.14.6-13.56,60.35-15,68.27C279.89,119.09,278.07,124.73,269.29,124.73Z"/><path class="cls-4" d="M303.09,21.3a4.13,4.13,0,0,1-2.08-.56L257.35-4.64a4.15,4.15,0,0,1-1.5-5.67,4.15,4.15,0,0,1,5.67-1.5l43.65,25.37a4.15,4.15,0,0,1-2.09,7.74Z"/><path class="cls-4" d="M257.65,168h0a2.08,2.08,0,0,1-2.05-2.1l.27-26.38a2.08,2.08,0,0,1,2.07-2.05h0a2.08,2.08,0,0,1,2.05,2.1l-.27,26.38A2.08,2.08,0,0,1,257.65,168Z"/><path class="cls-4" d="M217.47,161.13a2.08,2.08,0,0,1-.6-.09l-56.65-17L18.33,112.71a2.08,2.08,0,0,1,.9-4.05L161.34,140l56.73,17a2.08,2.08,0,0,1-.6,4.06Z"/><path class="cls-4" d="M17.31,127.19h-.25a2.08,2.08,0,0,1-1.82-2.31l3.46-29a2.08,2.08,0,0,1,4.12.49l-3.46,29A2.08,2.08,0,0,1,17.31,127.19Z"/><path class="cls-4" d="M72.45,140.6a19.28,19.28,0,0,1-4.72-.69C58.95,137.67-4.35,121.66-5,121.49A2.08,2.08,0,0,1-6.49,119,2.08,2.08,0,0,1-4,117.47c.64.16,63.94,16.18,72.73,18.43,3,.76,5,.74,6.09-.06,1.48-1.1,1.81-4.27,1.95-7.23C77.11,121.41,84.31-3,84.38-4.3a2.08,2.08,0,0,1,2.19-2,2.07,2.07,0,0,1,2,2.19c-.07,1.26-7.26,125.68-7.58,132.85-.17,3.85-.61,8.15-3.62,10.38A7.89,7.89,0,0,1,72.45,140.6Z"/><path class="cls-4" d="M81.44,85l-.3,0-102.73-15a2.08,2.08,0,0,1-1.75-2.35A2.08,2.08,0,0,1-21,65.79l102.73,15a2.08,2.08,0,0,1-.3,4.13Z"/><path class="cls-4" d="M234.59,162.27l-.28,0a2.08,2.08,0,0,1-1.78-2.34c.08-.57,7.72-56.63,9-66.57,1.29-10.1-1.13-12-10.73-13.75-11.44-2.08-68.18-11.66-70.54-12.05L-5.62,51.35a2.08,2.08,0,0,1-1.86-2.27,2.07,2.07,0,0,1,2.27-1.86L160.88,63.43c.59.1,59,10,70.66,12.08,12.32,2.24,15.62,6.53,14.11,18.36-1.27,10-8.92,66-9,66.6A2.08,2.08,0,0,1,234.59,162.27Z"/><path class="cls-4" d="M215.59,59.87c-1,0-2-.05-3.07-.16-9.35-.91-198.43-20.84-200.34-21a2.08,2.08,0,0,1,.44-4.13c1.91.2,191,20.13,200.3,21,8.35.82,10.89-1.6,14.27-9.29C230.84,38,252.81-10.52,253-11a2.07,2.07,0,0,1,2.75-1,2.08,2.08,0,0,1,1,2.75c-.22.49-22.18,49-25.82,57.26C227.58,55.7,224.09,59.87,215.59,59.87Z"/></g></g></svg>