<svg xmlns="http://www.w3.org/2000/svg" xmlns:xlink="http://www.w3.org/1999/xlink" width="982" height="844">
  <defs>
    <path id="prefix__table_service-a" d="M981 49H735v244h246V49zm0-1h1v547h-1v-48H491v297h-1v-48H1v48H0V249h1v48h733V0h1v48h246zm0 498V298H735v248h246zM1 795h243V547H1v248zm244 0h245V547H245v248zm489-249V298H1v248h243V300h1v246h245V299h1v247h243zM1 542h243v4H1v-4zm244 249h245v4H245v-4zm246-249h243v4H491v-4z"/>
    <linearGradient id="prefix__table_service-b" x1="0%" y1="13.066%" y2="90.981%">
      <stop offset="0%" stop-color="#F7618B"/>
      <stop offset="100%" stop-color="#2A7AFF"/>
    </linearGradient>
  </defs>
  <g fill="none" fill-rule="evenodd">
    <mask id="prefix__table_service-c" fill="#fff">
      <use xlink:href="#prefix__table_service-a"/>
    </mask>
    <use fill="#FFF" opacity=".4" xlink:href="#prefix__table_service-a"/>
    <g fill="url(#prefix__table_service-b)" mask="url(#prefix__table_service-c)">
      <path d="M0-1h982v844H0z"/>
    </g>
  </g>
</svg>
